HIERARCHY
ROOT Hips
{
	OFFSET -0.001795 -0.223333 0.028219
	CHANNELS 6 Xposition Yposition Zposition Zrotation Yrotation Xrotation 
	JOINT LeftUpLeg
	{
		OFFSET 0.069520 -0.091406 -0.006815
		CHANNELS 3 Zrotation Yrotation Xrotation
		JOINT LeftLeg
		{
			OFFSET 0.034277 -0.375199 -0.004496
			CHANNELS 3 Zrotation Yrotation Xrotation
			JOINT LeftFoot
			{
				OFFSET -0.013596 -0.397961 -0.043693
				CHANNELS 3 Zrotation Yrotation Xrotation
				JOINT LeftToe
				{
					OFFSET 0.026358 -0.055791 0.119288
					CHANNELS 3 Zrotation Yrotation Xrotation
					End Site
					{
						OFFSET 0.000000 0.000000 0.000000
					}
				}
			}
		}
	}
	JOINT RightUpLeg
	{
		OFFSET -0.067670 -0.090522 -0.004320
		CHANNELS 3 Zrotation Yrotation Xrotation
		JOINT RightLeg
		{
			OFFSET -0.038290 -0.382569 -0.008850
			CHANNELS 3 Zrotation Yrotation Xrotation
			JOINT RightFoot
			{
				OFFSET 0.015774 -0.398415 -0.042312
				CHANNELS 3 Zrotation Yrotation Xrotation
				JOINT RightToe
				{
					OFFSET -0.025372 -0.048144 0.123348
					CHANNELS 3 Zrotation Yrotation Xrotation
					End Site
					{
						OFFSET 0.000000 0.000000 0.000000
					}
				}
			}
		}
	}
	JOINT Spine
	{
		OFFSET -0.002533 0.108963 -0.026696
		CHANNELS 3 Zrotation Yrotation Xrotation
		JOINT Spine1
		{
			OFFSET 0.005487 0.135180 0.001092
			CHANNELS 3 Zrotation Yrotation Xrotation
			JOINT Spine2
			{
				OFFSET 0.001457 0.052922 0.025425
				CHANNELS 3 Zrotation Yrotation Xrotation
				JOINT Neck
				{
					OFFSET -0.002778 0.213870 -0.042857
					CHANNELS 3 Zrotation Yrotation Xrotation
					JOINT Head
					{
						OFFSET 0.005152 0.064970 0.051349
						CHANNELS 3 Zrotation Yrotation Xrotation
						End Site
						{
							OFFSET 0.000000 0.000000 0.000000
						}
					}
				}
				JOINT LeftShoulder
				{
					OFFSET 0.078845 0.121749 -0.034090
					CHANNELS 3 Zrotation Yrotation Xrotation
					JOINT LeftArm
					{
						OFFSET 0.090977 0.030469 -0.008868
						CHANNELS 3 Zrotation Yrotation Xrotation
						JOINT LeftForeArm
						{
							OFFSET 0.259612 -0.012772 -0.027456
							CHANNELS 3 Zrotation Yrotation Xrotation
							JOINT LeftHand
							{
								OFFSET 0.249234 0.008986 -0.001171
								CHANNELS 3 Zrotation Yrotation Xrotation
								End Site
								{
									OFFSET 0.000000 0.000000 0.000000
								}
							}
						}
					}
				}
				JOINT RightShoulder
				{
					OFFSET -0.081759 0.118833 -0.038615
					CHANNELS 3 Zrotation Yrotation Xrotation
					JOINT RightArm
					{
						OFFSET -0.096012 0.032551 -0.009143
						CHANNELS 3 Zrotation Yrotation Xrotation
						JOINT RightForeArm
						{
							OFFSET -0.253742 -0.013329 -0.021401
							CHANNELS 3 Zrotation Yrotation Xrotation
							JOINT RightHand
							{
								OFFSET -0.255298 0.007772 -0.005559
								CHANNELS 3 Zrotation Yrotation Xrotation
								End Site
								{
									OFFSET 0.000000 0.000000 0.000000
								}
							}
						}
					}
				}
			}
		}
	}
}
MOTION
Frames: 16
Frame Time: 0.050000
0.000000 0.501196 0.000000 -13.619148 10.352130 -20.556754 27.876985 -0.214358 -7.282744 -23.114121 18.194488 107.732808 10.109766 22.482871 -7.475698 0.000000 0.000000 0.000000 1.038100 2.501168 -68.156104 5.698382 -9.550939 101.100534 -9.001373 -23.170263 -35.379397 0.000000 0.000000 0.000000 -10.573690 -1.859328 61.097597 -3.077550 1.724003 -39.965708 0.221213 -0.361278 27.466707 10.999364 -14.168522 5.437338 0.000000 0.000000 0.000000 -38.781258 -12.630015 6.681609 -24.446559 -1.944518 -4.316651 8.048350 -29.674724 -0.902289 0.000000 0.000000 0.000000 37.870750 -7.995759 -6.999191 24.848240 -25.122922 -8.796873 35.738317 43.421747 16.387858 0.000000 0.000000 0.000000 
-0.001988 0.508338 0.013491 -12.694068 9.649609 -17.427192 27.343830 -0.062147 -7.687656 -24.580463 21.377097 106.272583 8.168571 17.598558 -15.342322 0.000000 0.000000 0.000000 6.253590 6.914081 -73.745770 -0.025526 0.287569 85.299345 -9.378490 -24.464118 -24.924054 0.000000 0.000000 0.000000 -8.388333 -2.289460 57.376639 -6.240612 2.191283 -35.949595 -3.059541 -5.193612 23.432657 10.262136 -13.526515 9.066024 0.000000 0.000000 0.000000 -34.485292 -9.586397 5.691051 -25.935207 -4.378529 -4.210978 7.648742 -28.166879 -0.704636 0.000000 0.000000 0.000000 37.830123 -6.371702 -8.476112 22.564161 -30.243597 -7.997410 41.124466 42.870273 17.705950 0.000000 0.000000 0.000000 
-0.003362 0.518366 0.036040 -12.494551 11.264604 -17.173439 29.876212 -0.184452 -8.696221 -23.703360 19.907050 108.528300 6.346903 12.824891 -9.658711 0.000000 0.000000 0.000000 5.427771 5.482937 -74.143581 -1.617189 1.617292 70.192043 -7.775381 -17.033456 -16.079322 0.000000 0.000000 0.000000 -7.249028 -3.302218 57.580277 -3.763304 1.986698 -30.804467 -5.520760 -3.317514 20.759667 14.534097 -15.628463 1.459917 0.000000 0.000000 0.000000 -29.687319 -12.557593 5.972750 -27.667989 -4.942979 -3.752586 8.101612 -33.119930 -1.082357 0.000000 0.000000 0.000000 36.398117 -7.160731 -7.823394 22.412094 -28.253191 -7.564720 34.958062 41.681379 14.637584 0.000000 0.000000 0.000000 
-0.003145 0.521666 0.071954 -12.057208 13.971061 -18.135912 30.458937 -1.289096 -4.753009 -24.079945 17.596425 107.454558 4.078573 8.082140 -3.979747 0.000000 0.000000 0.000000 5.493970 4.016890 -70.180106 -8.190418 5.128094 53.645127 -4.880830 -8.449773 -12.875236 0.000000 0.000000 0.000000 -6.058769 -4.604222 56.888338 -5.375878 2.490819 -30.629490 -6.879606 -3.296986 22.542039 14.913166 -16.277551 2.069502 0.000000 0.000000 0.000000 -29.072697 -11.528628 5.043491 -25.641412 -5.881588 -3.376291 6.740705 -38.133430 -0.877229 0.000000 0.000000 0.000000 35.590744 -7.822655 -7.612701 16.380535 -31.817188 -5.743010 36.252947 42.949939 15.462231 0.000000 0.000000 0.000000 
-0.000599 0.523319 0.124315 -10.447768 16.543664 -17.937403 28.207300 -2.426069 1.172379 -25.092210 14.685801 100.953377 5.243685 9.997685 -8.724410 0.000000 0.000000 0.000000 3.356645 1.505715 -68.631454 -11.092226 6.091492 47.616009 -3.298059 -3.694189 -13.608474 0.000000 0.000000 0.000000 -5.149307 -5.352496 55.505519 -5.877048 2.848947 -29.934851 -6.941071 -4.144838 21.591029 12.782028 -16.000797 7.762782 0.000000 0.000000 0.000000 -28.958801 -9.945868 4.048069 -25.901163 -2.935785 -3.966760 6.670476 -48.940041 -1.032622 0.000000 0.000000 0.000000 32.807564 -9.360449 -8.250998 8.886878 -37.763337 -2.880192 38.593925 41.565039 15.535633 0.000000 0.000000 0.000000 
0.001575 0.517145 0.197312 -9.524057 22.194826 -17.394407 28.646026 -4.480672 6.564907 -24.675092 9.205293 95.819773 4.323094 4.355204 -17.407762 0.000000 0.000000 0.000000 -0.348822 -3.801037 -68.467307 -8.473299 4.219655 52.511244 -1.839246 1.833601 -16.472391 0.000000 0.000000 0.000000 -2.939910 -6.307832 49.583495 -11.500997 5.353280 -28.842374 -3.051395 -10.587025 23.259406 8.760594 -13.183367 14.753388 0.000000 0.000000 0.000000 -35.499419 -7.718107 5.090336 -19.001095 0.228405 -3.911740 7.194450 -55.289155 -1.388748 0.000000 0.000000 0.000000 33.270883 -11.361726 -12.495834 -3.232246 -42.640072 3.093193 42.447093 39.607544 15.438748 0.000000 0.000000 0.000000 
-0.000108 0.507771 0.281668 -10.565583 25.577428 -18.424585 29.646003 -7.331595 13.511164 -20.596355 2.445962 91.034671 3.920265 -3.171913 -23.966843 0.000000 0.000000 0.000000 0.019747 -5.685188 -70.234659 -7.261671 3.328734 65.280199 1.749352 8.355166 -8.896008 0.000000 0.000000 0.000000 0.848688 -7.257383 44.708557 -19.101509 7.943424 -28.705269 2.975876 -15.685509 23.458081 8.517657 -14.106855 23.478990 0.000000 0.000000 0.000000 -40.649208 -6.865598 7.151269 -15.370101 2.756349 -3.738430 3.689898 -62.552430 -0.019303 0.000000 0.000000 0.000000 31.331312 -14.720170 -17.322188 -11.554111 -45.014600 7.765804 46.741763 39.847948 16.424299 0.000000 0.000000 0.000000 
-0.008601 0.494716 0.360779 -11.488543 28.934066 -20.034738 28.523043 -9.008187 17.812729 -17.955352 -2.112038 90.182437 7.210991 0.426114 -35.737032 0.000000 0.000000 0.000000 4.227235 -5.351206 -75.495049 -11.253740 8.205211 81.006340 2.744639 9.257796 -4.930779 0.000000 0.000000 0.000000 2.023455 -7.775609 43.262201 -25.006635 12.183814 -22.677876 11.454941 -23.466932 13.532952 10.008699 -11.351401 29.677104 0.000000 0.000000 0.000000 -47.748519 -5.865695 13.222869 -14.322318 3.021050 -3.659116 17.797198 -60.533394 -9.380648 0.000000 0.000000 0.000000 28.226265 -13.366386 -21.871632 -15.869002 -50.020282 11.124317 52.476567 35.924240 15.491332 0.000000 0.000000 0.000000 
-0.022516 0.485015 0.420641 -13.689929 30.365344 -22.868378 28.806798 -8.695641 15.454739 -19.093684 -2.803915 96.818534 6.436370 3.055614 -31.994496 0.000000 0.000000 0.000000 8.217725 -3.920517 -79.351874 -10.699188 9.309718 89.595516 2.265062 4.576737 1.255244 0.000000 0.000000 0.000000 -1.703615 -8.636604 49.698530 -26.815208 14.195654 -27.322945 14.262501 -26.460075 15.717115 12.518978 -11.898252 25.578812 0.000000 0.000000 0.000000 -51.946876 -6.621241 19.764025 -11.793953 -4.368368 -3.272673 28.628410 -43.849161 -11.747124 0.000000 0.000000 0.000000 33.149844 -10.105849 -28.074673 -10.167492 -48.665024 9.429093 48.531682 33.486910 12.518088 0.000000 0.000000 0.000000 
-0.038267 0.473301 0.460722 -16.467656 30.613741 -24.131822 29.868391 -8.676750 13.570150 -19.730673 -2.722631 100.159871 5.781511 5.810328 -25.049240 0.000000 0.000000 0.000000 11.286028 -2.403670 -83.764253 -7.504898 7.648420 95.068199 0.487243 -1.595926 6.066147 0.000000 0.000000 0.000000 -6.817068 -9.305943 58.479126 -12.579402 7.789980 -36.180495 2.915673 -16.017719 25.460007 8.653527 -14.377043 25.181343 0.000000 0.000000 0.000000 -49.110949 -10.659675 13.695078 -11.833963 -4.735571 -2.753276 18.734416 -34.908018 -5.039004 0.000000 0.000000 0.000000 42.332680 -6.515297 -17.431681 7.674499 -39.417282 -0.893750 38.294750 37.727583 13.270770 0.000000 0.000000 0.000000 
-0.051258 0.461399 0.484935 -16.198127 27.576395 -22.104352 30.372844 -6.607921 8.326273 -21.881574 2.275832 106.139748 4.033857 5.246520 -15.328167 0.000000 0.000000 0.000000 15.620201 3.380848 -87.353933 -7.129647 9.704020 96.132531 -1.006184 -6.014335 10.197317 0.000000 0.000000 0.000000 -10.027955 -8.645313 65.761772 -8.075340 4.045135 -42.279440 0.622383 -8.544049 28.631971 6.430099 -11.471965 17.640461 0.000000 0.000000 0.000000 -44.650383 -14.657752 11.846851 -14.722159 -5.302754 -2.782584 15.952682 -31.055344 -3.408336 0.000000 0.000000 0.000000 44.580788 -4.533552 -9.014996 17.709694 -28.342200 -5.796668 27.856450 41.925270 11.832441 0.000000 0.000000 0.000000 
-0.058721 0.454432 0.498250 -14.539688 26.403757 -18.849168 28.313109 -4.220814 2.002693 -24.446728 8.344800 110.779081 4.109790 5.498690 -20.380850 0.000000 0.000000 0.000000 17.531787 6.453322 -89.908102 -7.549960 12.151163 96.361841 -1.629610 -6.884595 9.028060 0.000000 0.000000 0.000000 -11.092719 -8.430516 70.862692 -7.918829 3.259697 -47.042741 -0.716524 -6.221273 31.694783 6.745827 -10.240084 10.088628 0.000000 0.000000 0.000000 -40.689537 -17.714917 12.994622 -17.643510 -8.124131 -2.951436 14.198840 -30.818682 -2.877414 0.000000 0.000000 0.000000 46.861045 -1.186857 -5.200497 19.105299 -23.366480 -5.989093 25.421978 47.654665 12.659999 0.000000 0.000000 0.000000 
-0.062324 0.446400 0.506281 -13.825524 26.046706 -18.257330 26.442400 -2.799619 -3.318242 -25.318499 12.099176 115.663346 3.318772 4.980179 -16.303076 0.000000 0.000000 0.000000 17.673314 6.917372 -90.011047 -7.158552 11.827317 96.531061 -2.685245 -8.228462 5.929234 0.000000 0.000000 0.000000 -11.871299 -8.827028 76.058912 -10.260575 3.165459 -45.758755 1.344592 -6.712964 30.250869 6.252423 -7.915863 3.438646 0.000000 0.000000 0.000000 -36.220038 -18.402029 13.351008 -24.324965 -12.215838 -3.207524 12.951435 -31.087807 -2.326536 0.000000 0.000000 0.000000 42.260584 0.278387 -4.519702 22.997487 -20.981544 -6.788711 30.493788 53.444312 17.112619 0.000000 0.000000 0.000000 
-0.064993 0.438104 0.511397 -13.240401 22.744603 -18.837511 24.464501 -1.976311 -3.905571 -24.856088 15.295239 117.535865 2.557734 3.860078 -10.483973 0.000000 0.000000 0.000000 18.472566 9.734179 -87.345547 -6.191048 9.808593 96.032004 -5.331229 -12.977003 0.508279 0.000000 0.000000 0.000000 -14.055095 -6.267812 79.544054 -7.672304 2.643319 -45.183940 1.786897 -1.876731 31.492465 4.796913 -4.970605 -1.920226 0.000000 0.000000 0.000000 -31.519105 -19.438466 11.733607 -31.166954 -14.701763 -2.894339 14.714796 -32.349388 -2.750662 0.000000 0.000000 0.000000 37.595317 0.907462 -1.286837 28.331757 -17.090742 -8.397531 29.369665 57.427863 18.691077 0.000000 0.000000 0.000000 
-0.068627 0.433013 0.513847 -12.537843 21.140028 -19.215955 22.939959 -1.344142 -6.241438 -24.976606 18.645678 119.548852 4.538646 9.849011 -5.095010 0.000000 0.000000 0.000000 17.061796 9.394340 -85.500493 -3.746991 5.860420 95.424916 -6.470829 -14.990327 -5.121415 0.000000 0.000000 0.000000 -15.086258 -4.677296 79.724075 -7.512415 2.630156 -41.880450 1.902013 -0.333219 29.627643 5.344601 -4.642016 -5.503284 0.000000 0.000000 0.000000 -27.684746 -19.391832 10.501454 -36.245422 -14.671775 -2.774169 13.741553 -33.348906 -2.482576 0.000000 0.000000 0.000000 33.618937 -0.185869 -1.401943 29.828528 -16.309291 -8.693087 36.229885 57.632249 23.017420 0.000000 0.000000 0.000000 
-0.072910 0.437214 0.513944 -12.816090 20.235640 -19.749119 23.454139 -1.132199 -7.876590 -25.795785 21.403421 119.275106 6.727961 14.745729 1.661424 0.000000 0.000000 0.000000 17.215684 9.847237 -83.709953 -3.036034 4.237223 93.998325 -7.115264 -16.493809 -6.163823 0.000000 0.000000 0.000000 -16.270771 -3.340189 78.898985 -6.416262 2.423039 -41.715680 1.216740 2.424834 31.212055 6.641970 -5.232983 -7.213538 0.000000 0.000000 0.000000 -25.300396 -19.846616 9.581654 -37.931200 -13.646704 -3.036791 13.573294 -33.083869 -2.499277 0.000000 0.000000 0.000000 34.328163 -0.720249 -0.528897 27.515528 -14.446677 -7.975662 36.557927 58.742503 23.858149 0.000000 0.000000 0.000000 
